<?xml version="1.0" encoding="UTF-8"?>
<svg width="248px" height="269px" viewBox="0 0 248 269" version="1.1" xmlns="http://www.w3.org/2000/svg" xmlns:xlink="http://www.w3.org/1999/xlink">
    <title>click-1263</title>
    <g id="Page-1" stroke="none" stroke-width="1" fill="none" fill-rule="evenodd">
        <g id="Artboard" transform="translate(-203, -91)" fill="#000000" fill-rule="nonzero">
            <g id="click-1263" transform="translate(203, 91)">
                <path d="M202.225865,85.431025 C203.299285,80.027395 202.169665,74.710875 199.053375,70.456535 C195.939895,66.202195 191.210665,63.524265 185.736785,62.911685 C180.347205,62.307535 174.909855,63.794025 170.408235,67.090155 L78.746035,134.215435 L79.198445,110.454075 C79.299605,105.145985 77.282025,100.231295 73.513815,96.617635 C69.613535,92.874715 64.381315,91.000445 58.738835,91.340455 C47.490405,92.020475 38.172445,101.512655 37.961695,112.496945 L36.329085,198.547575 C35.983455,213.921085 40.454165,228.403825 49.257895,240.425005 C62.743085,258.838935 84.124375,268.440705 106.466685,268.437896 C122.989485,268.437896 140.040565,263.188815 154.812735,252.370315 L193.174855,224.275935 C202.571495,217.391435 205.010575,204.684615 198.612205,195.948325 C195.498725,191.696795 190.769495,189.016055 185.295615,188.406285 C185.259085,188.403475 185.225365,188.403475 185.188835,188.400665 L186.197625,187.661635 C190.696435,184.365505 193.756525,179.625035 194.807465,174.311325 C195.880885,168.910505 194.751265,163.588365 191.634975,159.336835 C188.521495,155.085305 183.792265,152.404565 178.318385,151.791985 C177.332075,151.679585 176.345765,151.662725 175.362265,151.690825 C176.615525,149.594565 177.528775,147.307225 178.009285,144.890625 C179.079895,139.489805 177.950275,134.170475 174.836795,129.916135 C171.594055,125.487575 166.690605,122.924855 161.421855,122.360045 L193.618835,98.781335 C198.114835,95.485205 201.174925,90.744735 202.225865,85.431025 Z M190.297415,94.248805 L146.188845,126.552565 L120.384615,145.449815 C119.131355,146.365875 118.861595,148.124935 119.777655,149.375385 C120.693715,150.628645 122.447155,150.901215 123.703225,149.982345 L149.507455,131.085095 C156.408815,126.032715 165.735205,127.002165 170.304265,133.234745 C172.476395,136.204915 173.257575,139.956265 172.496065,143.797535 C171.717695,147.725915 169.435975,151.246845 166.075215,153.708405 L140.270985,172.605655 C139.017725,173.521715 138.747965,175.280775 139.664025,176.531225 C139.919735,176.882475 140.251315,177.135375 140.610995,177.329265 C140.717775,177.388275 140.832985,177.407945 140.945385,177.450095 C141.212335,177.551255 141.476475,177.624315 141.760285,177.641175 C141.819295,177.643985 141.875495,177.680515 141.934505,177.680515 C142.072195,177.680515 142.204265,177.638365 142.341955,177.615885 C142.451545,177.599025 142.561135,177.593405 142.667915,177.565305 C142.991065,177.478195 143.305785,177.346125 143.592405,177.135375 L166.308445,160.500175 C169.666395,158.038615 173.707175,156.911805 177.694565,157.372645 C181.583605,157.805385 184.927505,159.679655 187.102445,162.652635 C189.277385,165.622805 190.058565,169.374155 189.297055,173.215425 C188.518685,177.143805 186.236965,180.664735 182.876205,183.126295 L160.601335,199.438345 C159.350885,200.354405 159.078315,202.113465 159.994375,203.363915 C160.542325,204.116995 161.396565,204.513205 162.262045,204.513205 C162.838095,204.513205 163.419765,204.338985 163.919945,203.970875 L173.277245,197.117285 C173.280055,197.117285 173.280055,197.117285 173.282865,197.114475 C176.640815,194.652915 180.681595,193.545775 184.668985,193.986945 C188.560835,194.419685 191.901925,196.296765 194.076865,199.266935 C198.645925,205.502325 196.749175,214.688215 189.850625,219.743405 L151.488505,247.837785 C119.243755,271.450215 75.413375,266.636685 53.784805,237.103585 C45.717295,226.088385 41.623125,212.797085 41.940655,198.659975 L43.576075,112.603725 C43.730625,104.477205 50.682565,97.455015 59.073225,96.946405 C63.139295,96.704745 66.862545,98.025445 69.619155,100.669655 C72.240885,103.184605 73.645885,106.621235 73.572825,110.344485 L73.013635,139.776425 C72.993965,140.844225 73.581255,141.830535 74.528225,142.325095 C75.478005,142.814035 76.618865,142.726925 77.484345,142.097485 L173.726845,71.625495 C177.084795,69.163935 181.122765,68.045555 185.112965,68.497965 C189.002005,68.930705 192.345905,70.807785 194.520845,73.777955 C196.695785,76.748125 197.476965,80.499475 196.715455,84.340745 C195.937085,88.269125 193.658175,91.787245 190.297415,94.248805 Z" id="Shape"></path>
                <line x1="6.50796" y1="2.595035" x2="24.56783" y2="28.480755" id="Path"></line>
                <path d="M164.591535,57.432185 C163.703575,57.432185 162.829665,57.013495 162.284525,56.229505 L144.224655,30.343785 C143.336695,29.070855 143.648605,27.320225 144.921535,26.432265 C146.202895,25.544305 147.947905,25.856215 148.833055,27.129145 L166.892925,53.014865 C167.778075,54.287795 167.468975,56.038425 166.196045,56.926385 C165.707105,57.269205 165.145105,57.432185 164.591535,57.432185 Z" id="Path"></path>
                <line x1="6.506555" y1="2.595035" x2="24.569235" y2="28.480755" id="Path"></line>
                <path d="M218.816105,135.148355 C217.928145,135.148355 217.054235,134.729665 216.509095,133.945675 L198.449225,108.059955 C197.564075,106.787025 197.873175,105.036395 199.146105,104.148435 C200.427465,103.257665 202.172475,103.572385 203.057625,104.845315 L221.117495,130.731035 C222.002645,132.003965 221.693545,133.754595 220.420615,134.642555 C219.928865,134.985375 219.369675,135.148355 218.816105,135.148355 Z" id="Path"></path>
                <line x1="2.595035" y1="24.569235" x2="28.480755" y2="6.506555" id="Path"></line>
                <path d="M213.412475,63.462445 C212.524515,63.462445 211.650605,63.043755 211.105465,62.259765 C210.220315,60.986835 210.529415,59.236205 211.802345,58.348245 L237.688065,40.288375 C238.966615,39.397605 240.714435,39.712325 241.599585,40.985255 C242.484735,42.258185 242.175635,44.008815 240.902705,44.896775 L215.016985,62.956645 C214.525235,63.299465 213.966045,63.462445 213.412475,63.462445 Z" id="Path"></path>
                <line x1="0" y1="12.77145" x2="31.07579" y2="18.30434" id="Path"></line>
                <path d="M244.859185,94.420215 C244.696205,94.420215 244.530415,94.406165 244.364625,94.375255 L213.288835,88.842365 C211.760195,88.569795 210.742975,87.111405 211.015545,85.585575 C211.288115,84.059745 212.749315,83.025665 214.272335,83.312285 L245.348125,88.845175 C246.876765,89.117745 247.893985,90.576135 247.621415,92.101965 C247.379755,93.462005 246.193935,94.420215 244.859185,94.420215 Z" id="Path"></path>
                <line x1="18.30434" y1="-5.32907052e-15" x2="12.77145" y2="31.07579" id="Path"></line>
                <path d="M188.212395,52.236495 C188.049415,52.236495 187.883625,52.222445 187.715025,52.191535 C186.189195,51.918965 185.171975,50.460575 185.444545,48.934745 L190.977435,17.858955 C191.247195,16.333125 192.677485,15.296235 194.237035,15.585665 C195.762865,15.858235 196.780085,17.316625 196.507515,18.842455 L190.974625,49.918245 C190.732965,51.281095 189.547145,52.236495 188.212395,52.236495 Z" id="Path"></path>
            </g>
        </g>
    </g>
</svg>