<?xml version="1.0" encoding="UTF-8"?>
<svg width="215px" height="50px" viewBox="0 0 215 50" version="1.1" xmlns="http://www.w3.org/2000/svg" xmlns:xlink="http://www.w3.org/1999/xlink">
    <title>Artboard</title>
    <g id="Artboard" stroke="none" stroke-width="1" fill="none" fill-rule="evenodd">
        <g id="Group" transform="translate(15, 0)">
            <rect id="Rectangle" fill="#3C50E0" x="0" y="0" width="50" height="50" rx="5"></rect>
            <g id="file-type-lighthouse" transform="translate(3, 7.9875)">
                <path d="M1.60651732,29.0125 C5.22065951,29.0125 5.22065951,26.6174893 8.8348017,26.6174893 C12.4489439,26.6174893 12.4489439,29.0125 16.0630861,29.0125 C19.6772283,29.0125 19.6772283,26.6174893 23.2913705,26.6174893 C26.9055127,26.6174893 26.9071189,29.0125 30.5196548,29.0125 C34.1321907,29.0125 34.133797,26.6174893 37.7479392,26.6174893 C41.1725397,26.6174893 41.3444123,28.7657413 44.4092048,28.9947592 C47.232074,16.7032755 39.670553,4.42180191 27.4580748,1.46261911 C21.599102,0.147667518 15.4597058,1.23955709 10.4070454,4.49513899 C5.35438504,7.7507209 1.80799689,12.8996752 0.557612947,18.7954004 C-0.179863602,22.1308272 -0.185892701,25.5874088 0.539943807,28.9254087 C0.898865358,28.9800314 1.26118093,29.0091342 1.62418646,29.0125 L1.60651732,29.0125 Z" id="Path" fill="#304FFE" fill-rule="nonzero"></path>
                <polygon id="Path" fill="#FFD54F" fill-rule="nonzero" points="20.2409639 3.728125 26.1144578 3.728125 26.1144578 9.25625 20.2409639 9.25625"></polygon>
                <polygon id="Path" fill="#FFF176" fill-rule="nonzero" points="20.2409639 3.728125 22.3192771 3.728125 22.3192771 9.25625 20.2409639 9.25625"></polygon>
                <ellipse id="Oval" fill="#FFF176" fill-rule="nonzero" cx="22.3192771" cy="5.1328125" rx="1.35542169" ry="1.7671875"></ellipse>
                <path d="M13.7179121,2.06155965 C13.9133619,2.06459522 14.1062944,2.10590313 14.2856837,2.18312264 C14.3757234,1.07218596 15.2308611,0.173164282 16.3412578,0.0220605855 C17.4516545,-0.129043111 18.51822,0.508471601 18.9050606,1.55451402 C19.7871862,1.5820457 20.4879518,2.30114593 20.4879518,3.17881951 C20.4879518,4.05649309 19.7871862,4.77559332 18.9050606,4.803125 L13.7179121,4.803125 C13.3525052,4.801885 13.0028041,4.6552279 12.7468498,4.39588239 C12.4908954,4.13653687 12.3499912,3.78608861 12.3555819,3.42274525 C12.3508106,3.06141439 12.4925991,2.71340416 12.7489372,2.45728141 C13.0052753,2.20115866 13.3545511,2.05851715 13.7179121,2.06155965 L13.7179121,2.06155965 Z" id="Path" fill="#2979FF" fill-rule="nonzero"></path>
                <path d="M20.1514083,3.09375 C20.1261245,2.0014552 20.6973408,0.981192986 21.6440809,0.427654137 C22.590821,-0.125884712 23.7646007,-0.125884712 24.7113408,0.427654137 C25.6580809,0.981192986 26.2292972,2.0014552 26.2040134,3.09375" id="Path" fill="#F4511E" fill-rule="nonzero"></path>
                <path d="M19.9150277,3.04843011 L26.3782336,3.04843011 C26.5870043,3.06733353 26.746988,3.2442625 26.746988,3.45624261 C26.746988,3.66822272 26.5870043,3.8451517 26.3782336,3.86405511 L19.9150277,3.86405511 C19.8081027,3.86498613 19.7054058,3.82187753 19.63056,3.74464549 C19.5557143,3.66741346 19.5151633,3.56270692 19.5182349,3.45461136 C19.5199384,3.23289902 19.6958354,3.05284013 19.9150277,3.04843011 L19.9150277,3.04843011 Z" id="Path" fill="#F4511E" fill-rule="nonzero"></path>
                <polygon id="Path" fill="#C5CAE9" fill-rule="nonzero" points="19.4277108 26.384375 20.2660859 9.25625 26.0836103 9.25625 26.8373494 25.5334482"></polygon>
                <line x1="26.1821386" y1="10.525" x2="26.4082229" y2="15.05625" id="Path"></line>
                <polygon id="Path" fill="#FF7043" fill-rule="nonzero" points="20.1023906 13.469743 19.8795181 18.228125 26.4759036 15.0720059 26.2530311 10.525"></polygon>
                <line x1="26.6339458" y1="19.5875" x2="26.8600301" y2="24.11875" id="Path"></line>
                <polygon id="Path" fill="#FF7043" fill-rule="nonzero" points="19.6674296 22.8864224 19.4277108 27.653125 26.9277108 24.0518319 26.699179 19.496875"></polygon>
                <polygon id="Path" fill="#E64A19" fill-rule="nonzero" points="19.3373494 6.71875 26.9277108 6.71875 26.9277108 9.25625 19.3373494 9.25625"></polygon>
                <polygon id="Path" fill="#F4511E" fill-rule="nonzero" points="19.4277108 6.71875 24.3975904 6.71875 24.3975904 9.25625 19.4277108 9.25625"></polygon>
                <path d="M32.7179121,6.06155965 C32.9133619,6.06459522 33.1062944,6.10590313 33.2856837,6.18312264 C33.3757234,5.07218596 34.2308611,4.17316428 35.3412578,4.02206059 C36.4516545,3.87095689 37.51822,4.5084716 37.9050606,5.55451402 C38.7871862,5.5820457 39.4879518,6.30114593 39.4879518,7.17881951 C39.4879518,8.05649309 38.7871862,8.77559332 37.9050606,8.803125 L32.7179121,8.803125 C32.3525052,8.801885 32.0028041,8.6552279 31.7468498,8.39588239 C31.4908954,8.13653687 31.3499912,7.78608861 31.3555819,7.42274525 C31.3508106,7.06141439 31.4925991,6.71340416 31.7489372,6.45728141 C32.0052753,6.20115866 32.3545511,6.05851715 32.7179121,6.06155965 L32.7179121,6.06155965 Z" id="Path" fill="#2979FF" fill-rule="nonzero"></path>
                <path d="M17.2646945,19.2167596 C17.4317955,19.216296 17.5969486,19.2529648 17.7484282,19.3241625 C17.8084747,18.3569084 18.5348412,17.5659568 19.4859402,17.4321591 C20.4370392,17.2983614 21.3500416,17.8586916 21.6698964,18.7725023 C22.4384231,18.7338564 23.0924795,19.3312873 23.1307723,20.1069015 C23.169065,20.8825158 22.5770935,21.5426041 21.8085668,21.58125 L17.2824314,21.58125 C16.9739481,21.5682071 16.6834505,21.4311769 16.4756698,21.2006937 C16.267889,20.9702104 16.1600901,20.6654254 16.1762936,20.3542536 C16.1759057,19.7406854 16.6571208,19.2370453 17.2646945,19.2151323 L17.2646945,19.2167596 Z" id="Path" fill="#448AFF" fill-rule="nonzero"></path>
                <path d="M20.4216867,3.63470922 C20.4216867,3.63470922 8.96778312,2.00625 8.93402898,2.00625 C5.88007678,3.99864062 3.29470001,6.62649553 1.35542169,9.709375 L20.404006,6.8739967 L20.4216867,3.63470922 Z" id="Path" fill="#FFE082" fill-rule="nonzero" opacity="0.5"></path>
                <path d="M16.1130392,29.0125 C19.7321885,29.0125 19.7321885,26.6391251 23.3513379,26.6391251 C26.9704872,26.6391251 26.9720957,29.0125 30.591245,29.0125 C33.6586751,29.0125 34.1299688,27.3023915 36.4156627,26.7749749 C32.3861427,24.7964456 27.9312023,23.8258915 23.4381974,23.9477021 C18.9192731,23.8284593 14.4397786,24.8112614 10.3915663,26.810136 C12.5968346,27.3535349 13.0793878,29.0125 16.1130392,29.0125 Z" id="Path" fill="#00C853" fill-rule="nonzero"></path>
                <path d="M16.1185285,29.0125 C19.7265944,29.0125 19.7265944,26.6051005 23.3346603,26.6051005 L23.4036145,26.6051005 L23.3699392,23.9480448 C18.9107296,23.82404 14.4883044,24.7953113 10.4819277,26.778563 C12.6307314,27.3475847 13.1294463,29.0125 16.1185285,29.0125 L16.1185285,29.0125 Z" id="Path" fill="#64DD17" fill-rule="nonzero"></path>
            </g>
        </g>
        <text id="Lighthouse" font-family="Lato-Bold, Lato" font-size="25" font-weight="bold" letter-spacing="-0.19960275" fill="#FFFFFF">
            <tspan x="82" y="35">Lighthouse</tspan>
        </text>
    </g>
</svg>