<?xml version="1.0" encoding="UTF-8"?>
<svg width="100px" height="100px" viewBox="0 0 100 100" version="1.1" xmlns="http://www.w3.org/2000/svg" xmlns:xlink="http://www.w3.org/1999/xlink">
    <title>Group</title>
    <g id="Page-1" stroke="none" stroke-width="1" fill="none" fill-rule="evenodd">
        <g id="Group" transform="translate(0, 0)">
            <rect id="Rectangle" fill="#3C50E0" x="0" y="0" width="100" height="100" rx="13"></rect>
            <g id="file-type-lighthouse" transform="translate(4.8913, 15.3986)">
                <path d="M3.2207956,57.9710145 C10.4665396,57.9710145 10.4665396,53.1833869 17.7122836,53.1833869 C24.9580276,53.1833869 24.9580276,57.9710145 32.2037716,57.9710145 C39.4495156,57.9710145 39.4495156,53.1833869 46.6952596,53.1833869 C53.9410036,53.1833869 53.944224,57.9710145 61.1867476,57.9710145 C68.4292713,57.9710145 68.4324916,53.1833869 75.6782356,53.1833869 C82.5439806,53.1833869 82.888556,57.4777438 89.0329469,57.9355506 C94.6923223,33.3648686 79.5327511,8.81419671 55.0487974,2.89878883 C43.3025475,0.270199935 30.9940961,2.45288773 20.8643664,8.96079759 C10.7346367,15.4687074 3.62472807,25.7614697 1.11791968,37.5470273 C-0.360596111,44.2145472 -0.372683435,51.1242554 1.08249604,57.7969189 C1.80207306,57.9061097 2.52845451,57.9642863 3.25621924,57.9710145 L3.2207956,57.9710145 Z" id="Path" fill="#304FFE" fill-rule="nonzero"></path>
                <polygon id="Path" fill="#FFD54F" fill-rule="nonzero" points="40.5797101 7.42753623 52.3550725 7.42753623 52.3550725 18.4782609 40.5797101 18.4782609"></polygon>
                <polygon id="Path" fill="#FFF176" fill-rule="nonzero" points="40.5797101 7.42753623 44.7463768 7.42753623 44.7463768 18.4782609 40.5797101 18.4782609"></polygon>
                <ellipse id="Oval" fill="#FFF176" fill-rule="nonzero" cx="44.7463768" cy="10.2355072" rx="2.7173913" ry="3.5326087"></ellipse>
                <path d="M40.4001664,6.15942029 C40.3494767,3.97592244 41.4946688,1.93641776 43.3927226,0.829893327 C45.2907763,-0.276631109 47.6440063,-0.276631109 49.5420601,0.829893327 C51.4401138,1.93641776 52.5853059,3.97592244 52.5346162,6.15942029" id="Path" fill="#F4511E" fill-rule="nonzero"></path>
                <path d="M39.9262632,6.06882581 L52.8838983,6.06882581 C53.3024483,6.10661375 53.6231884,6.46029486 53.6231884,6.8840432 C53.6231884,7.30779155 53.3024483,7.66147266 52.8838983,7.6992606 L39.9262632,7.6992606 C39.7118967,7.70112171 39.5060067,7.61494758 39.3559537,7.4605607 C39.2059007,7.30617383 39.1246028,7.09686542 39.1307608,6.88078234 C39.1341761,6.43757924 39.4868198,6.07764145 39.9262632,6.06882581 L39.9262632,6.06882581 Z" id="Path" fill="#F4511E" fill-rule="nonzero"></path>
                <polygon id="Path" fill="#C5CAE9" fill-rule="nonzero" points="38.9492754 52.7173913 40.6300756 18.4782609 52.2932284 18.4782609 53.8043478 51.0163882"></polygon>
                <line x1="52.4907609" y1="21.0144928" x2="52.9440217" y2="30.0724638" id="Path"></line>
                <polygon id="Path" fill="#FF7043" fill-rule="nonzero" points="40.3018942 26.9010355 39.8550725 36.4130435 53.0797101 30.1039599 52.6328884 21.0144928"></polygon>
                <line x1="53.396558" y1="39.1304348" x2="53.8498188" y2="48.1884058" id="Path"></line>
                <polygon id="Path" fill="#FF7043" fill-rule="nonzero" points="39.4298709 45.7249823 38.9492754 55.2536232 53.9855072 48.0546365 53.5273395 38.9492754"></polygon>
                <polygon id="Path" fill="#E64A19" fill-rule="nonzero" points="38.7681159 13.4057971 53.9855072 13.4057971 53.9855072 18.4782609 38.7681159 18.4782609"></polygon>
                <polygon id="Path" fill="#F4511E" fill-rule="nonzero" points="38.9492754 13.4057971 48.9130435 13.4057971 48.9130435 18.4782609 38.9492754 18.4782609"></polygon>
                <path d="M65.5938817,12.0920733 C65.9857255,12.0981414 66.3725227,12.1807159 66.7321678,12.3350777 C66.9126822,10.1143148 68.6270887,8.31716998 70.8532463,8.01511361 C73.0794039,7.71305725 75.2176874,8.98744948 75.9932374,11.0784888 C77.7617501,11.1335246 79.1666667,12.5710064 79.1666667,14.3254763 C79.1666667,16.0799462 77.7617501,17.5174279 75.9932374,17.5724638 L65.5938817,17.5724638 C64.8613027,17.569985 64.1602112,17.2768174 63.647066,16.7583856 C63.1339208,16.2399538 62.8514316,15.5394075 62.8626401,14.813084 C62.8530744,14.0907834 63.1373363,13.3951108 63.6512509,12.8831213 C64.1651654,12.3711318 64.8654044,12.0859913 65.5938817,12.0920733 L65.5938817,12.0920733 Z" id="Path" fill="#2979FF" fill-rule="nonzero"></path>
                <path d="M34.6127933,38.3893245 C34.9478025,38.3883979 35.2789067,38.4616988 35.5825976,38.6040229 C35.7029806,36.6704816 37.1592227,35.089369 39.0660154,34.8219073 C40.9728081,34.5544456 42.8032235,35.6745459 43.4444783,37.5012539 C44.9852444,37.4240008 46.2965169,38.6182654 46.3732874,40.1687187 C46.4500579,41.719172 45.263255,43.0386888 43.7224889,43.115942 L34.6483528,43.115942 C34.029896,43.0898693 33.4474974,42.8159458 33.0309322,42.3552097 C32.6143669,41.8944736 32.3982482,41.2852083 32.4307334,40.6631756 C32.4299559,39.4366526 33.3947108,38.4298757 34.6127933,38.3860715 L34.6127933,38.3893245 Z" id="Path" fill="#448AFF" fill-rule="nonzero"></path>
                <g id="Group" transform="translate(7.7899, 6.1594)" fill="#FDD835" fill-rule="nonzero">
                    <ellipse id="Oval" cx="49.3858596" cy="0.482287974" rx="1" ry="1"></ellipse>
                    <ellipse id="Oval" cx="0.482818154" cy="40.0974222" rx="1" ry="1"></ellipse>
                    <ellipse id="Oval" cx="4.99877729" cy="30.0529713" rx="1" ry="1"></ellipse>
                    <ellipse id="Oval" cx="8.03409409" cy="27.4550467" rx="1" ry="1"></ellipse>
                    <ellipse id="Oval" cx="20.8287752" cy="15.8319066" rx="1" ry="1"></ellipse>
                    <ellipse id="Oval" cx="61.2857177" cy="17.2337569" rx="1" ry="1"></ellipse>
                    <ellipse id="Oval" cx="80.4954427" cy="38.0235839" rx="1" ry="1"></ellipse>
                    <ellipse id="Oval" cx="12.7238678" cy="14.3207376" rx="1" ry="1"></ellipse>
                    <ellipse id="Oval" cx="55.9071235" cy="38.2357906" rx="1" ry="1"></ellipse>
                    <ellipse id="Oval" cx="70.7006718" cy="25.7702541" rx="1" ry="1"></ellipse>
                </g>
                <path d="M40.942029,7.24079804 C40.942029,7.24079804 17.9788889,3.98550725 17.9112175,3.98550725 C11.7885597,7.9682971 6.60531645,13.2213804 2.7173913,19.384058 L40.9065821,13.7161353 L40.942029,7.24079804 Z" id="Path" fill="#FFE082" fill-rule="nonzero" opacity="0.5"></path>
                <path d="M32.3039192,57.9710145 C39.5597017,57.9710145 39.5597017,53.226637 46.8154841,53.226637 C54.0712666,53.226637 54.0744914,57.9710145 61.3302738,57.9710145 C67.4799525,57.9710145 68.4248167,54.5525068 73.0072464,53.4982007 C64.9287401,49.5431196 55.997338,47.6029816 46.9896229,47.8464809 C37.9299436,47.6081145 28.9493146,49.5727365 20.8333333,53.5684877 C25.2545234,54.6547425 26.2219611,57.9710145 32.3039192,57.9710145 Z" id="Path" fill="#00C853" fill-rule="nonzero"></path>
                <path d="M32.3149242,57.9710145 C39.5484863,57.9710145 39.5484863,53.1586218 46.7820484,53.1586218 L46.9202899,53.1586218 L46.8527766,47.8471661 C37.9128155,47.5992804 29.0466006,49.5408521 21.0144928,53.5053733 C25.3224809,54.6428479 26.3223199,57.9710145 32.3149242,57.9710145 L32.3149242,57.9710145 Z" id="Path" fill="#64DD17" fill-rule="nonzero"></path>
            </g>
        </g>
    </g>
</svg>